<svg width="107" height="27" viewBox="0 0 107 27">
  <path d="M104.039 1.579h-.32v.728h.353c.386 0 .541-.122.541-.364 0-.243-.232-.364-.574-.364Zm.144 1.114h-.475v.926h-.507V1.17h.75c.717 0 1.158.133 1.158.762 0 .498-.083.525-.271.586-.05.016-.106.035-.17.064l.562 1.037h-.551l-.496-.926Zm-.078 1.676c1.048 0 1.842-.75 1.842-1.886s-.783-1.897-1.842-1.897c-1.059 0-1.842.761-1.842 1.897 0 1.136.817 1.886 1.842 1.886Zm0-4.191c1.269 0 2.295.937 2.295 2.316 0 1.379-1.026 2.294-2.295 2.294-1.268 0-2.294-.926-2.294-2.294 0-1.368 1.026-2.316 2.294-2.316ZM7.325 17.683c-2.747 0-4.71-1.83-4.71-5.107 0-3.276 1.963-5.107 4.71-5.107 2.746 0 4.71 1.831 4.71 5.107 0 3.276-1.964 5.107-4.71 5.107Zm.562-12.31c-2.25 0-3.817.916-4.71 2.67-.077.154-.133.21-.265.21s-.165-.067-.165-.155V5.77H.387v11.913c0 1.61.54 2.67 1.146 3.453.232.297.475.573.74.827l1.08 1.048.261.226c.42.364.591.513 1.085.81a.281.281 0 0 1-.132.541s-.894-.143-1.865-.143H0v2.073h4.092c1.004 0 1.942-.672 2.262-1.61.165-.496.375-1.588-.63-2.592l-2.14-2.129c-.842-.97-.84-1.767-.838-2.414v-.73c0-.088.078-.154.166-.154.132 0 .177.055.265.21.893 1.753 2.46 2.669 4.71 2.669 3.243 0 6.519-2.36 6.519-7.203 0-4.842-3.276-7.203-6.52-7.203v.011ZM22.744 7.48c2.747 0 3.795 1.566 3.795 3.794H18.32c.342-2.46 1.677-3.794 4.423-3.794Zm6.42 4.18c0-3.276-2.096-6.287-6.42-6.287l-.01-.01c-4.192 0-6.939 2.746-6.939 7.202 0 4.456 2.978 7.203 7.203 7.203 4.224 0 5.901-2.67 6.42-4.71h-2.482c-.497 1.5-1.103 2.625-3.927 2.625s-4.534-1.787-4.71-4.456h10.865V11.66Zm8.494 6.023c2.747 0 4.71-1.832 4.71-5.107 0-3.277-1.963-5.108-4.71-5.108-2.746 0-4.71 1.831-4.71 5.107 0 3.277 1.964 5.108 4.71 5.108Zm-.551-12.31c2.25 0 3.816.915 4.71 2.669.077.154.132.21.265.21.132 0 .154-.056.154-.155V.53h2.36v18.851h-2.36v-2.327c0-.11-.055-.155-.154-.155-.1 0-.177.055-.265.21-.894 1.754-2.46 2.67-4.71 2.67-3.243 0-6.52-2.361-6.52-7.204 0-4.842 3.277-7.202 6.52-7.202ZM53.21 7.48c2.747 0 3.795 1.566 3.795 3.794h-8.218c.342-2.46 1.677-3.794 4.423-3.794Zm6.42 4.18c0-3.276-2.096-6.287-6.42-6.287l-.01-.01c-4.192 0-6.939 2.746-6.939 7.202 0 4.456 2.978 7.203 7.203 7.203s5.901-2.67 6.42-4.71h-2.482c-.496 1.5-1.103 2.625-3.927 2.625s-4.533-1.787-4.71-4.456H59.63V11.66Zm15.885-9.552h2.36V5.77h3.53v2.096h-3.53v6.42c0 1.326-.07 2.033-.108 2.423-.014.148-.024.25-.024.323 0 .21.014.219.063.252.013.008.029.019.047.035.077.077.155.11.287.11.073 0 .175-.01.323-.024.39-.039 1.097-.108 2.424-.108h.915v2.095h-1.831c-3.011 0-4.456-1.445-4.456-4.456V2.108Zm17.417 11.25c0 2.88-1.699 4.325-4.324 4.325-2.096 0-3.276-1.18-3.276-2.36 0-1.181.794-1.942 2.625-1.964l4.975-.11v.11Zm0-2.062-4.975.11-.011-.01c-3.408.077-4.975 1.301-4.975 3.926 0 2.626 2.901 4.457 5.24 4.457 2.338 0 3.64-1.048 4.302-2.438.088-.155.165-.177.264-.177.1 0 .155.044.155.155v2.073h2.36v-8.515c0-3.397-2.36-5.493-6.022-5.493-3.662 0-5.758 2.085-5.89 4.71h2.481c0-1.445.794-2.625 3.409-2.625 2.614 0 3.662 1.312 3.662 3.276v.551ZM99.969.53h-2.36v18.851h2.36V.531ZM66.8 11.253l2.482.518h-.011c2.25.474 4.191 1.158 4.191 3.695s-1.665 4.324-5.835 4.324-6.254-2.018-6.794-4.71h2.504c.397 1.511 1.853 2.625 4.29 2.625 2.438 0 3.486-.915 3.486-2.095 0-1.142-.856-1.324-2.688-1.713l-.191-.041-2.482-.519c-2.173-.452-3.794-1.125-3.794-3.75s2.195-4.192 5.625-4.192 5.89 1.831 6.023 4.71h-2.482c-.132-1.71-1.621-2.625-3.662-2.625-2.04 0-3.144.97-3.144 2.04s.805 1.39 2.482 1.732Z" fill="currentColor"></path>
</svg>
